<?xml version="1.0" encoding="UTF-8"?>
<!-- Created with Inkscape (http://www.inkscape.org/) -->
<svg width="186.55mm" height="265.13mm" version="1.1" viewBox="0 0 186.55 265.13" xmlns="http://www.w3.org/2000/svg" xmlns:cc="http://creativecommons.org/ns#" xmlns:dc="http://purl.org/dc/elements/1.1/" xmlns:rdf="http://www.w3.org/1999/02/22-rdf-syntax-ns#">
 <metadata>
  <rdf:RDF>
   <cc:Work rdf:about="">
    <dc:format>image/svg+xml</dc:format>
    <dc:type rdf:resource="http://purl.org/dc/dcmitype/StillImage"/>
    <dc:title/>
   </cc:Work>
  </rdf:RDF>
 </metadata>
 <g transform="translate(-14.351 -15.199)">
  <rect x="14.351" y="15.199" width="186.55" height="265.13" fill="#000428"/>
  <g fill="none" stroke="#daa520">
   <rect x="22.814" y="22.89" width="170.85" height="250.85" stroke-width="2.223"/>
   <rect x="27.512" y="27.453" width="161.45" height="241.73" stroke-width="2.1213"/>
   <g stroke-width="3">
    <path transform="scale(-1)" d="m-52.037-15.199a37.686 37.686 0 0 1 37.686-37.686"/>
    <path transform="rotate(-90)" d="m-52.885 200.91a37.686 37.686 0 0 1 37.686-37.686"/>
    <path transform="scale(-1,1)" d="m-52.037 280.33a37.686 37.686 0 0 1 37.686-37.686"/>
    <path transform="matrix(0,1,1,0,0,0)" d="m242.64 200.91a37.686 37.686 0 0 1 37.686-37.686"/>
   </g>
  </g>
  <text x="70.980942" y="155.42342" fill="#daa520" font-family="FreeSerif" font-size="33.153px" font-style="italic" letter-spacing="0px" stroke-width=".82882" word-spacing="0px" style="font-feature-settings:normal;font-variant-caps:normal;font-variant-ligatures:normal;font-variant-numeric:normal;line-height:1.25" xml:space="preserve"><tspan x="70.980942" y="155.42342" fill="#daa520" font-family="FreeSerif" font-size="33.153px" font-style="italic" stroke-width=".82882" style="font-feature-settings:normal;font-variant-caps:normal;font-variant-ligatures:normal;font-variant-numeric:normal">Script</tspan></text>
 </g>
</svg>
